<svg viewBox="0 0 552.8 474" xmlns="http://www.w3.org/2000/svg" xmlns:xlink="http://www.w3.org/1999/xlink">
  <!-- <style>:root>svg{display:none}:root>svg:target{display:block}</style> -->
  <symbol viewBox="0 0 50 50" id="discord" xmlns="http://www.w3.org/2000/svg">
    <path d="M41.625 10.77c-3.98-3.204-10.277-3.747-10.547-3.766a.992.992 0 00-.988.586 6.63 6.63 0 00-.305.832c2.633.445 5.867 1.34 8.793 3.156a1 1 0 11-1.055 1.7C32.493 10.155 26.211 10 25 10c-1.21 0-7.496.156-12.523 3.277a1 1 0 01-1.055-1.7c2.926-1.811 6.16-2.71 8.793-3.151-.152-.496-.29-.809-.3-.836a.987.987 0 00-.993-.586c-.27.02-6.567.562-10.602 3.809C6.215 12.761 2 24.152 2 34c0 .176.047.344.133.496 2.906 5.11 10.84 6.445 12.648 6.504h.031a1 1 0 00.81-.41l1.827-2.516c-4.933-1.273-7.453-3.437-7.597-3.566a1 1 0 011.324-1.5C11.234 33.063 15.875 37 25 37c9.14 0 13.781-3.953 13.828-3.992a1 1 0 011.41.094.996.996 0 01-.09 1.406c-.144.129-2.664 2.293-7.597 3.566l1.828 2.516a1 1 0 00.809.41h.03c1.81-.059 9.743-1.395 12.65-6.504.085-.152.132-.32.132-.496 0-9.848-4.215-21.238-6.375-23.23zM18.5 30c-1.934 0-3.5-1.79-3.5-4s1.566-4 3.5-4 3.5 1.79 3.5 4-1.566 4-3.5 4zm13 0c-1.934 0-3.5-1.79-3.5-4s1.566-4 3.5-4 3.5 1.79 3.5 4-1.566 4-3.5 4z" />
  </symbol>
  <symbol viewBox="0 0 48 48" id="github" xmlns="http://www.w3.org/2000/svg">
    <path d="M44 24c0 8.96-5.88 16.54-14 19.08V38c0-1.71-.72-3.24-1.86-4.34 5.24-.95 7.86-4 7.86-9.66 0-2.45-.5-4.39-1.48-5.9.44-1.71.7-4.14-.52-6.1-2.36 0-4.01 1.39-4.98 2.53C27.57 14.18 25.9 14 24 14c-1.8 0-3.46.2-4.94.61C18.1 13.46 16.42 12 14 12c-1.42 2.28-.84 4.74-.3 6.12C12.62 19.63 12 21.57 12 24c0 5.66 2.62 8.71 7.86 9.66-.67.65-1.19 1.44-1.51 2.34H16c-1.44 0-2-.64-2.77-1.68s-1.6-1.74-2.59-2.03c-.53-.06-.89.37-.42.75 1.57 1.13 1.68 2.98 2.31 4.19.57 1.09 1.75 1.77 3.08 1.77H18v4.08C9.88 40.54 4 32.96 4 24 4 12.95 12.95 4 24 4s20 8.95 20 20z" />
  </symbol>
  <symbol viewBox="0 0 474 474" id="mail" xmlns="http://www.w3.org/2000/svg">
    <path d="M437.5 59.3h-401C16.4 59.3 0 75.7 0 95.8v282.4c0 20.1 16.4 36.5 36.5 36.5h401c20.1 0 36.5-16.4 36.5-36.5V95.8c0-20.1-16.4-36.5-36.5-36.5zm-5.3 27L239.5 251.1 46.8 86.3h385.4zM447 378.2c0 5.2-4.3 9.5-9.5 9.5h-401c-5.2 0-9.5-4.3-9.5-9.5V104.9l203.7 174.2c.1.1.3.2.4.3.1.1.3.2.4.3.3.2.5.4.8.5.1.1.2.1.3.2l1.2.6c.1 0 .2.1.3.1.3.1.6.3 1 .4.1 0 .3.1.4.1.3.1.6.2.9.2.1 0 .3.1.4.1.3.1.7.1 1 .2h.3c.4 0 .9.1 1.3.1s.9 0 1.3-.1h.3c.3 0 .7-.1 1-.2.1 0 .3-.1.4-.1.3-.1.6-.2.9-.2.1 0 .3-.1.4-.1.3-.1.6-.2 1-.4.1 0 .2-.1.3-.1l1.2-.6c.1-.1.2-.1.3-.2.3-.2.5-.3.8-.5.1-.1.3-.2.4-.3.1-.1.3-.2.4-.3L447 109.2v269z" />
  </symbol>
  <symbol viewBox="0 0 53.942 53.942" id="phone" xmlns="http://www.w3.org/2000/svg">
    <path d="M53.364 40.908c-2.008-3.796-8.981-7.912-9.288-8.092-.896-.51-1.831-.78-2.706-.78-1.301 0-2.366.596-3.011 1.68-1.02 1.22-2.285 2.646-2.592 2.867-2.376 1.612-4.236 1.429-6.294-.629L17.987 24.467c-2.045-2.045-2.233-3.928-.632-6.291.224-.309 1.65-1.575 2.87-2.596.778-.463 1.312-1.151 1.546-1.995.311-1.123.082-2.444-.652-3.731-.173-.296-4.291-7.27-8.085-9.277a4.947 4.947 0 00-2.306-.573 4.908 4.908 0 00-3.49 1.445L4.7 3.986C.686 7.999-.767 12.548.379 17.506c.956 4.132 3.742 8.529 8.282 13.068l14.705 14.705c5.746 5.746 11.224 8.66 16.282 8.66h.001c3.72 0 7.188-1.581 10.305-4.698l2.537-2.537a4.908 4.908 0 00.873-5.796z" />
  </symbol>
  <symbol viewBox="0 0 48 48" id="telegram" xmlns="http://www.w3.org/2000/svg">
    <path d="M5.83 23.616c12.568-5.529 28.832-12.27 31.077-13.203 5.889-2.442 7.696-1.974 6.795 3.434-.647 3.887-2.514 16.756-4.002 24.766-.883 4.75-2.864 5.313-5.979 3.258-1.498-.989-9.059-5.989-10.7-7.163-1.498-1.07-3.564-2.357-.973-4.892.922-.903 6.966-6.674 11.675-11.166.617-.59-.158-1.559-.87-1.086-6.347 4.209-15.147 10.051-16.267 10.812-1.692 1.149-3.317 1.676-6.234.838-2.204-.633-4.357-1.388-5.195-1.676-3.227-1.108-2.461-2.543.673-3.922z" />
  </symbol>
</svg>
